<svg xmlns="http://www.w3.org/2000/svg" width="359" height="224" fill="none" xmlns:v="https://vecta.io/nano"><path d="M480.364 275.637c-12.907-93.19-59.991-146.334-122.269-181.092-88.87-49.599-145.935-26.714-149.823-26.519 148.911 71.969 187.243 124.247 272.092 207.611z" fill="#42d689" style="mix-blend-mode:multiply"/><path d="M-27.089 223.804a149.27 149.27 0 0 1-13.928-36.9c-7.28-30.539-2.153-62.693 14.26-89.421l68.431-2.196c7.452 51.493-9.726 143.41-33.595 151.523-30.547 9.529 60.669-190.05 110.279-163.835 19.011 12.074-52.406 98.839-76.15 122.017-83.544-38.778 137.54-112.994 188.452-93.079-9.914 57.85-44.245 87.662-93.974 113.066-39.301 18.261-131.207 68.413-163.776-1.174z" fill="#ffd62c" style="mix-blend-mode:multiply"/></svg>