<svg xmlns="http://www.w3.org/2000/svg" width="359" height="259" fill="none" xmlns:v="https://vecta.io/nano"><path d="M-170.55 193.45C-94.195 120.661 64.641 7.324 195.256-63c0 0 35.17 111.718-65.277 115.361s-13.708 61.999-73.021 102.801-93.562 23.145-227.508 38.288z" fill="#7fcdef"/><path d="M400.894 255.983c-50.909-70.796-124.43-77.712-184.859-77.799 17.915-36.418 143.306-28.657 146.907 5.962-41.493 9.111-134.342-69.244-113.528-85.679s91.197 29.365 98.04 37.417c0 0-92.167-52.921-116.629-119.509 7.726.785 152.647 40.811 170.069 239.608z" fill="#ff7800" style="mix-blend-mode:multiply"/></svg>