<svg xmlns="http://www.w3.org/2000/svg" viewBox="0 0 500 500"><g id="freepik--Shadow--inject-76"><ellipse cx="368.08" cy="414.31" rx="36.66" ry="10.8" style="fill:#92E3A9"></ellipse><ellipse cx="368.08" cy="414.31" rx="36.66" ry="10.8" style="fill:#fff;opacity:0.5"></ellipse><ellipse cx="83.46" cy="410.05" rx="29.93" ry="7.51" style="fill:#92E3A9"></ellipse><ellipse cx="83.46" cy="410.05" rx="29.93" ry="7.51" style="fill:#fff;opacity:0.5"></ellipse><ellipse cx="347.77" cy="409.19" rx="107.61" ry="10.8" style="fill:#92E3A9"></ellipse><ellipse cx="347.77" cy="409.19" rx="107.61" ry="10.8" style="fill:#fff;opacity:0.5"></ellipse></g><g id="freepik--Plants--inject-76"><path d="M278.89,414.26h0a1,1,0,0,1-1-1v-46.1h2v46.1A1,1,0,0,1,278.89,414.26Z" style="fill:#263238"></path><path d="M281.93,405.65h0a1,1,0,0,1-1-1v-46.1h2v46.1A1,1,0,0,1,281.93,405.65Z" style="fill:#263238"></path><path d="M419.67,414.26h0a1,1,0,0,0,1-1v-46.1h-2v46.1A1,1,0,0,0,419.67,414.26Z" style="fill:#263238"></path><path d="M416.63,405.65h0a1,1,0,0,0,1-1v-46.1h-2v46.1A1,1,0,0,0,416.63,405.65Z" style="fill:#263238"></path><polygon points="424.89 361.26 274.61 361.26 282.12 355.06 417.37 355.06 424.89 361.26" style="fill:#fff"></polygon><path d="M424.89,361.77H274.61a.51.51,0,0,1-.32-.89l7.51-6.2a.49.49,0,0,1,.32-.12H417.37a.47.47,0,0,1,.32.12l7.52,6.2a.51.51,0,0,1-.32.89Zm-148.89-1H423.5l-6.31-5.21H282.3Z" style="fill:#263238"></path><rect x="274.61" y="361.39" width="150.28" height="7.47" style="fill:#263238"></rect><path d="M424.89,369.36H274.61a.5.5,0,0,1-.5-.5v-7.47a.5.5,0,0,1,.5-.5H424.89a.5.5,0,0,1,.5.5v7.47A.5.5,0,0,1,424.89,369.36Zm-149.78-1H424.39v-6.47H275.11Z" style="fill:#263238"></path><path d="M349.5,361.56a.5.5,0,0,1-.5-.5v-5.27a.5.5,0,1,1,1,0v5.27A.5.5,0,0,1,349.5,361.56Z" style="fill:#263238"></path><path d="M84.13,347.43c-3.4-4.07-5-4.11-5.66-3.8q0-3.22,0-6.56c2.35,2,4.4,3.69,4.4,3.69A27.79,27.79,0,0,0,78.24,331c-.14-2.48-.33-5-.6-7.42-.2-1.81-.37-3.65-.51-5.49.81,3.21,1.6,6.76,4.14,9.3a70.4,70.4,0,0,1,6,7.31S85.4,326.47,81.59,323a21,21,0,0,1-4.51-5.49c-.31-4.07-.49-8.16-.6-12.18a39,39,0,0,0,0-5.2l-.11.14c0-.63,0-1.25,0-1.87a16.44,16.44,0,0,0,7.42,13.16s0-7.62-3.49-12.07S76.51,296,76.51,296a14.64,14.64,0,0,0-.12,1.72c0-5.64.13-10.92.32-15.44a8.93,8.93,0,0,0,2,4.83c3.18,3.49,6.35,3.49,6.35,3.49s-1.27-7.3-3.49-9.53A31.67,31.67,0,0,0,77,277.32c.33-6,.68-9.85.69-10a.47.47,0,0,0-.42-.51.49.49,0,0,0-.52.42c0,.2-1.19,13-1.25,29a34.16,34.16,0,0,0-2.12-7.59c-1.91-3.81-5.08-3.49-5.08-3.49a3.12,3.12,0,0,0-.4-.05c-.38-8.76-.55-16.7-.61-23.27,1.41,4.16,7.68,12.52,7.68,12.52s0-11.75-2.54-13.34a6.1,6.1,0,0,0-5.14-.41c0-2.77,0-5.29,0-7.48l.38-.05-.38-.26c0-6.19.16-9.87.17-10a.47.47,0,1,0-.94,0c0,.1-.12,3.57-.16,9.43-1.34-.75-3.44-1.66-5-1.06-2.54,1-4.13,11.75-4.13,11.75s4.28-8,9.16-9.59c0,6.33,0,15.15.38,25.42-1.13-.15-5.1-.49-7,2-2.22,2.86-5.4,12.71-5.4,12.71l12.41-14.27c.07,2,.15,4.06.24,6.16-.28.3-.17.88.07,1.56.31,6.65.75,13.75,1.36,21.05a47.62,47.62,0,0,0-4.87,6.46c-3.49,5.4-3.81,13.66-3.81,13.66s7.87-8.18,9.42-11.81c.63,7.33,1.11,14.21,1.47,20.5A20.5,20.5,0,0,1,67,342.67c-3.18,3.81-3.18,12.38-3.18,12.38s6-2.79,7.09-12.06c.94,19.73.69,32.27.69,32.45a.47.47,0,0,0,.46.48h0a.47.47,0,0,0,.47-.46c0-.23.39-19.79-1.65-48.56a10.15,10.15,0,0,0,.87,3.38c.62,1.23,3.23,3.71,5.76,6,.07,2.73.07,5.42,0,8a7.1,7.1,0,0,0-2.28,4.1,92,92,0,0,0-1.59,10.49,14.36,14.36,0,0,0,3.55-6.37,226.89,226.89,0,0,1-2.77,25.14.48.48,0,0,0,.38.55h.09a.47.47,0,0,0,.46-.39,234.85,234.85,0,0,0,3.09-33.25c.59,1,1.85,3.13,3.46,5.41,2.22,3.18,7.62,7.94,7.62,7.94S88.89,353.15,84.13,347.43Zm-8.26-18.74c-5.08-3.81-5.08-5.08-5.08-5.08a18.27,18.27,0,0,0,0,1.87c-.3-4-.64-8.16-1-12.47a24.24,24.24,0,0,0-.5-5.73c-.47-5.72-.84-11.29-1.12-16.63,1,2.34,5.33,8.27,7.35,11v.11A29.68,29.68,0,0,0,73,308.05a14.07,14.07,0,0,0,.64,9.84,38.44,38.44,0,0,0,2.09-7.1c.19,4.32.5,8.68,1,12.92.23,2.06.4,4.12.53,6.19A14.16,14.16,0,0,0,75.87,328.69Z" style="fill:#263238"></path><polygon points="82.02 409.47 65.27 409.47 61.68 371.78 85.61 371.78 82.02 409.47" style="fill:#263238"></polygon></g><g id="freepik--Images--inject-76"><rect x="97.8" y="395.67" width="10.98" height="1" style="fill:#263238"></rect><rect x="117.19" y="395.67" width="328.89" height="1" style="fill:#263238"></rect><rect x="60.33" y="395.67" width="28.43" height="1" style="fill:#263238"></rect><rect x="97.83" y="116.46" width="158.43" height="124.58" style="fill:#fff"></rect><path d="M256.76,241.54H97.33V116H256.76Zm-158.43-1H255.76V117H98.33Z" style="fill:#263238"></path><rect x="104.32" y="121.5" width="145.46" height="113.06" style="fill:#92E3A9"></rect><path d="M249.78,160.38c-6.79-9.13-13.12-11.61-21.6-3.6-13,12.25-22.33,41.77-30.25,39.61s-7.92-14.4-15.12-23S163.37,182,141,201.43a93.83,93.83,0,0,1-36.72,19.72v13.41H249.78Z" style="fill:#263238"></path><path d="M250.28,235.06H103.82v-14.3l.37-.1a93,93,0,0,0,36.52-19.6c5.86-5.1,11-10.06,15.58-14.43,9.9-9.5,17-16.37,22.41-16.06a6.13,6.13,0,0,1,4.49,2.46c3.07,3.67,4.86,8,6.45,11.86,2.17,5.27,4.05,9.83,8.42,11,4,1.08,9-7.67,14.25-16.94,4.53-8,9.67-17,15.53-22.55,3.82-3.61,7.32-5.23,10.72-4.93,3.82.33,7.51,3.06,11.62,8.59l.1.13Zm-145.46-1H249.28V160.55c-3.89-5.2-7.32-7.76-10.8-8.07-3.09-.26-6.35,1.26-10,4.67-5.75,5.43-10.84,14.4-15.34,22.32-5.94,10.45-10.62,18.7-15.38,17.4s-6.81-6.08-9.09-11.6c-1.56-3.77-3.32-8.05-6.28-11.6a5.21,5.21,0,0,0-3.79-2.1c-4.92-.26-11.94,6.46-21.66,15.78-4.56,4.38-9.74,9.34-15.61,14.46a94.08,94.08,0,0,1-36.55,19.72Z" style="fill:#263238"></path><circle cx="137.8" cy="149.94" r="18.36" style="fill:#263238"></circle><path d="M137.8,168.81a18.87,18.87,0,1,1,18.87-18.87A18.89,18.89,0,0,1,137.8,168.81Zm0-36.73a17.87,17.87,0,1,0,17.87,17.86A17.88,17.88,0,0,0,137.8,132.08Z" style="fill:#263238"></path><rect x="275.27" y="116.46" width="158.43" height="124.58" style="fill:#fff"></rect><path d="M434.2,241.54H274.77V116H434.2Zm-158.43-1H433.2V117H275.77Z" style="fill:#263238"></path><rect x="282.36" y="121.5" width="143.94" height="112.09" style="fill:#263238"></rect><path d="M427.22,160.38c-6.79-9.13-13.12-11.61-21.6-3.6-13,12.25-22.33,41.77-30.25,39.61s-7.92-14.4-15.12-23S340.8,182,318.48,201.43a93.83,93.83,0,0,1-36.72,19.72v13.41H427.22Z" style="fill:#92E3A9"></path><circle cx="315.24" cy="149.94" r="18.36" style="fill:#92E3A9"></circle><rect x="97.36" y="254.51" width="158.43" height="124.58" style="fill:#fff"></rect><path d="M256.29,379.59H96.86V254H256.29Zm-158.43-1H255.29V255H97.86Z" style="fill:#263238"></path><rect x="104.45" y="259.55" width="143.94" height="112.09" style="fill:#263238"></rect><path d="M249.3,298.43c-6.79-9.13-13.11-11.61-21.6-3.59-13,12.24-22.32,41.76-30.24,39.6s-7.92-14.4-15.12-23-19.45,8.64-41.77,28.08a93.83,93.83,0,0,1-36.72,19.72v13.41H249.3Z" style="fill:#92E3A9"></path><circle cx="137.33" cy="287.99" r="18.36" transform="translate(-169.03 377.13) rotate(-80.73)" style="fill:#92E3A9"></circle></g><g id="freepik--Character--inject-76"><path d="M341,310.54s1.78,3.83,1.78,5.21-.55,3.32-.55,5-.55,3-1.11,1.93a12.66,12.66,0,0,1-.83-3l-.27,5s.55,2.21-.83,1.65a4.59,4.59,0,0,1-2.76-3.86c0-1.66,0-6.36,1.1-8.29S339.45,308.63,341,310.54Z" style="fill:#fff"></path><path d="M339.54,326.84a1.58,1.58,0,0,1-.58-.12,5.08,5.08,0,0,1-3.08-4.34c0-2.78.13-6.7,1.18-8.53.25-.44.49-1,.73-1.52.66-1.46,1.23-2.71,2.19-2.83a1.54,1.54,0,0,1,1.37.72l.06.1c.19.41,1.83,4,1.83,5.43a16.51,16.51,0,0,1-.26,2.35,16.27,16.27,0,0,0-.29,2.63c0,.43-.05,2.58-1,2.81-.23.06-.67,0-1-.66l-.05-.11-.1,1.78c.1.44.28,1.55-.3,2.06A.92.92,0,0,1,339.54,326.84Zm.58-16.35h0c-.4.05-1,1.38-1.39,2.25-.25.55-.51,1.12-.79,1.6-1,1.82-1,6.51-1,8a4.13,4.13,0,0,0,2.45,3.41.51.51,0,0,0,.22,0,2.49,2.49,0,0,0-.06-1.12l0-.08.28-5.05,1,0a12.66,12.66,0,0,0,.72,2.77,5.11,5.11,0,0,0,.22-1.59,17.75,17.75,0,0,1,.3-2.79,15,15,0,0,0,.25-2.19c0-1-1.21-3.86-1.71-4.95C340.34,310.57,340.19,310.49,340.12,310.49Z" style="fill:#263238"></path><path d="M390.66,245.86s2.82,3.76,2.35,10.8-.47,26.31.47,31.48-11.27,14.56-13.15,16.44-4.7-9.4-4.7-9.4l8.45-9.86-.93-23.49S386.43,245.39,390.66,245.86Z" style="fill:#92E3A9"></path><path d="M379.88,305.29a1.45,1.45,0,0,1-.29,0c-1.95-.54-3.9-7.75-4.45-9.95l-.06-.25,8.5-9.91-.94-23.35,0-.06c.34-1.73,3.52-16.86,8.06-16.37l.21,0,.13.17c.12.16,2.93,4,2.45,11.14-.49,7.37-.45,26.35.46,31.35.83,4.57-7.56,11.86-11.59,15.37-.78.67-1.39,1.21-1.7,1.51A1.1,1.1,0,0,1,379.88,305.29Zm-3.7-10c1.06,4.16,2.74,8.72,3.68,9,0,0,0,0,.11-.06.33-.33,1-.87,1.75-1.56,3.59-3.12,12-10.42,11.27-14.43-1-5.37-.92-25-.48-31.6.39-5.88-1.59-9.43-2.12-10.28-2.68.21-5.53,9.5-6.74,15.52l.94,23.62Z" style="fill:#263238"></path><path d="M377.89,284.14c0-9.24,14.7-34.86,14.7-34.86s-2.52-8-5.46-8.41a87.12,87.12,0,0,0-8.82-.42l-.84-10.08-1,.34c-.23.34.39-1.15.14-.77-.66,1-2.44,1.76-4.44,2.15.11,1.91-.83,7.06-2.26,8.78-2.1,2.53-12.18,4.21-13,7.15s-6.72,36.12-6.72,52.08c0,5.29-.59,13.16-1.31,21.65l16,2.55-3.29,12.22s-2.49,18.37-2.49,20.38,6.24,18.39,6.24,18.39l4.2,29.13,5.88-.15s.42-20.58.42-26.88-5.46-22.68-5.46-22.68,13-38.23,13-47.47S377.89,293.38,377.89,284.14Z" style="fill:#263238"></path><path d="M369.06,404.93l-4.26-29.51c-.73-1.92-6.25-16.5-6.25-18.52s2.39-19.7,2.49-20.45l3.16-11.74-15.88-2.54,0-.47c.64-7.56,1.31-16.05,1.31-21.6,0-16.27,5.95-49.48,6.74-52.22.53-1.87,3.79-3.1,7.24-4.4,2.47-.93,5-1.9,5.87-2.92,1.32-1.58,2.25-6.63,2.15-8.44l0-.44.42-.08c2-.4,3.59-1.14,4.13-1.94l.24-.37.45.14a.45.45,0,0,1,.27.52l.75-.25.86,10.26a79.09,79.09,0,0,1,8.43.42c3.16.45,5.6,7.9,5.87,8.75l.06.2-.11.19c-.14.26-14.63,25.62-14.63,34.62,0,4.53,1.31,7.85,2.69,11.37s2.77,7,2.77,11.73c0,9-12,44.42-13,47.47.6,1.81,5.44,16.63,5.44,22.68,0,6.23-.42,26.69-.42,26.89v.48Zm-19.67-83.6,16.06,2.57L362,336.65c0,.12-2.47,18.3-2.47,20.25,0,1.4,3.71,11.66,6.2,18.21l0,.11,4.14,28.69,5-.12c.06-3.13.41-20.71.41-26.4,0-6.15-5.38-22.36-5.44-22.52l-.05-.16.05-.16c.13-.38,13-38.25,13-47.31,0-4.52-1.31-7.85-2.7-11.36s-2.76-7-2.76-11.74c0-8.95,13.2-32.37,14.66-34.92-.75-2.27-2.9-7.55-5-7.85a86.67,86.67,0,0,0-8.75-.41h-.46l-.83-9.91-.23.08-.15.22-.44-.14-.11-.07a10.12,10.12,0,0,1-3.41,1.35c0,2.23-1,7-2.39,8.71-1,1.22-3.58,2.19-6.28,3.21-2.93,1.11-6.25,2.36-6.64,3.74-.78,2.73-6.7,35.76-6.7,52C350.67,305.58,350,313.86,349.39,321.33Z" style="fill:#263238"></path><path d="M373.35,319.22a.24.24,0,0,1-.23-.14.24.24,0,0,1,.12-.33c.05,0,5.14-2.48,7.1-4.88a.25.25,0,1,1,.39.32c-2,2.48-7.06,4.9-7.28,5Z" style="fill:#fff"></path><path d="M369.49,404.42a43.33,43.33,0,0,1-5.79,3.1c-1.45.42-6.62,1-6.62,1.86s7.65,1.86,10.55,1.86a62.45,62.45,0,0,0,6.82-.2c1.45-.21.92-6.77.92-6.77Z" style="fill:#fff"></path><path d="M367.63,411.74c-.11,0-11.05-.54-11.05-2.36,0-.91,1.45-1.27,5-1.93.81-.15,1.57-.29,2-.41a40.89,40.89,0,0,0,5.67-3l.11-.08,6.49-.16,0,.47c.21,2.63.32,7.06-1.35,7.3A61.13,61.13,0,0,1,367.63,411.74Zm-9.78-2.39a42.91,42.91,0,0,0,9.78,1.39,60.93,60.93,0,0,0,6.75-.2c.43-.17.73-2.63.52-5.75l-5.26.13a40.54,40.54,0,0,1-5.8,3.08c-.45.13-1.2.27-2.07.43A28.27,28.27,0,0,0,357.85,409.35Z" style="fill:#263238"></path><path d="M370.87,409.77c-3.83,0-10.1-.68-12.85-1-.56.19-.94.39-.94.61,0,.83,7.65,1.86,10.55,1.86a62.45,62.45,0,0,0,6.82-.2c.38-.06.62-.54.77-1.23C374,409.79,372.47,409.77,370.87,409.77Z" style="fill:#263238"></path><path d="M367.63,411.74c-.11,0-11.05-.54-11.05-2.36,0-.58.65-.87,1.28-1.09l.11,0h.11c2.57.3,9,1,12.79,1,1.6,0,3.08,0,4.36,0h.61l-.13.6c-.08.37-.33,1.49-1.19,1.61A61.13,61.13,0,0,1,367.63,411.74Zm-9.77-2.38a43.13,43.13,0,0,0,9.77,1.38,60.93,60.93,0,0,0,6.75-.2h0a.59.59,0,0,0,.17-.24c-1.12,0-2.36,0-3.68,0-3.83,0-10.13-.68-12.79-1Z" style="fill:#263238"></path><path d="M387.13,240.87a87.12,87.12,0,0,0-8.82-.42l-.84-10.08-1,.34c-.23.34.39-1.15.14-.77-.66,1-2.44,1.76-4.44,2.15.11,1.91-.83,7.06-2.26,8.78-2.1,2.53-12.18,4.21-13,7.15s-6.72,36.12-6.72,52.08c0,.84,0,1.75-.05,2.72,6.55,1.56,17.29,2.46,32.48-1.35-1.49-5.84-4.71-10.22-4.71-17.33,0-9.24,14.7-34.86,14.7-34.86S390.07,241.3,387.13,240.87Z" style="fill:#92E3A9"></path><path d="M362.43,304.66A53.4,53.4,0,0,1,350,303.3l-.39-.09v-.41c0-.95.05-1.86.05-2.7,0-16.27,5.95-49.48,6.74-52.22.53-1.87,3.79-3.1,7.24-4.4,2.47-.93,5-1.9,5.87-2.92,1.32-1.58,2.25-6.63,2.15-8.44l0-.44.42-.08c2-.4,3.59-1.14,4.13-1.94l.24-.37.45.14a.45.45,0,0,1,.27.52l.75-.25.86,10.26a79.09,79.09,0,0,1,8.43.42c3.16.45,5.6,7.9,5.87,8.75l.06.2-.11.19c-.14.26-14.63,25.62-14.63,34.62,0,4.53,1.31,7.86,2.69,11.38a48,48,0,0,1,2,5.83l.12.48-.49.13A83.54,83.54,0,0,1,362.43,304.66Zm-11.8-2.24c6.26,1.43,16.66,2.3,31.36-1.31a52.68,52.68,0,0,0-1.84-5.23c-1.36-3.45-2.76-7-2.76-11.74,0-8.95,13.2-32.37,14.66-34.92-.75-2.27-2.9-7.55-5-7.85a86.67,86.67,0,0,0-8.75-.41h-.46l-.83-9.91-.23.08-.15.22-.44-.14-.11-.07a10.12,10.12,0,0,1-3.41,1.35c0,2.23-1,7-2.39,8.71-1,1.22-3.58,2.19-6.28,3.21-2.93,1.11-6.25,2.36-6.64,3.74-.78,2.73-6.7,35.76-6.7,52C350.67,300.83,350.65,301.61,350.63,302.42Z" style="fill:#263238"></path><path d="M364.62,211.41s-1.65,6.86-2.47,7.41-3.3,1.64-3,2.47a22.16,22.16,0,0,0,2.19,3.29s-.46,7.1.36,7.92,2.39,1.41,5.68,1.41,7.14-1.09,8.24-2.74,2.19-3.29,2.19-3.29,1.92,0,1.92-2.75,1.38-6.31-1.92-10.15S367.64,209.21,364.62,211.41Z" style="fill:#fff"></path><path d="M367.36,234.41c-3.05,0-5-.49-6-1.55-.86-.87-.66-5.82-.52-8.12a19.67,19.67,0,0,1-2.16-3.29c-.34-1,1.16-1.87,2.48-2.61.29-.17.56-.32.74-.44.43-.39,1.51-4,2.26-7.11l0-.18.15-.11c3.21-2.33,10.33-.46,13.85,3.65,2.73,3.18,2.42,6.21,2.17,8.65-.06.65-.13,1.26-.13,1.83,0,2.53-1.48,3.09-2.13,3.21L376,231.45C374.73,233.37,370.6,234.41,367.36,234.41Zm-2.3-22.7c-.54,2.21-1.77,6.95-2.64,7.52-.19.13-.48.3-.8.48-.53.3-1.95,1.09-2,1.45a20.62,20.62,0,0,0,2.11,3.11l.11.15v.19c-.21,3.24-.18,7,.22,7.54.85.85,2.59,1.26,5.32,1.26,3.39,0,6.89-1.13,7.82-2.52l2.34-3.51h.27c.14,0,1.42-.1,1.42-2.25a19.06,19.06,0,0,1,.14-1.93c.24-2.37.51-5-1.94-7.9C374.3,211.67,367.93,209.84,365.06,211.71Z" style="fill:#263238"></path><path d="M364.16,220c-.11.74,0,1.37.28,1.41s.58-.52.7-1.26,0-1.38-.29-1.42S364.27,219.21,364.16,220Z" style="fill:#263238"></path><path d="M367,218.19a.51.51,0,0,1-.47-.32,2.75,2.75,0,0,0-1.22-1.45,1,1,0,0,0-.86.11.5.5,0,0,1-.68-.19.49.49,0,0,1,.19-.68,2,2,0,0,1,1.69-.18,3.69,3.69,0,0,1,1.81,2,.49.49,0,0,1-.28.64A.39.39,0,0,1,367,218.19Z" style="fill:#263238"></path><path d="M362.85,212.81a43,43,0,0,0,7.39,6.59c4.31,3,6.62,1.5,5.95,7.07s-5.4,14.1-1.29,20.75,11.85,11.76,25.34,6,15.21-20,9.26-25.68-11.08-6-14-10.55-1-12.16-8.53-14.8-14-.22-15.93-.46-1.65-4.62-7.73-3.15S357,210.62,362.85,212.81Z" style="fill:#263238"></path><path d="M389.4,256.25c-7.58,0-12.19-4.36-14.92-8.77-3.08-5-1.38-11,0-15.89a36.66,36.66,0,0,0,1.21-5.18c.43-3.54-.27-3.85-2.35-4.77a19.26,19.26,0,0,1-3.39-1.83,43.4,43.4,0,0,1-7.4-6.58c-3.31-1.31-4.61-5-4.43-8.08.21-3.57,2.21-6.33,5.1-7,4.39-1.07,5.81.84,6.74,2.1.46.61.76,1,1.17,1a11.66,11.66,0,0,0,2.38-.24,27,27,0,0,1,13.65.72c5.23,1.82,6.17,6,7,9.75a16.65,16.65,0,0,0,1.79,5.26c1.47,2.3,3.52,3.47,6.11,4.94a36.88,36.88,0,0,1,7.78,5.51c2.81,2.66,4,7.06,3.15,11.75-1.17,6.47-5.74,11.84-12.56,14.75A28.35,28.35,0,0,1,389.4,256.25ZM365.59,198.8a9.24,9.24,0,0,0-2.13.29c-3,.72-4.2,3.75-4.34,6.12-.17,2.76,1,6,3.9,7.13l.12,0,.09.1a42.73,42.73,0,0,0,7.29,6.51,18.64,18.64,0,0,0,3.23,1.74c2.33,1,3.43,1.71,2.93,5.8a37.14,37.14,0,0,1-1.24,5.33c-1.39,4.91-3,10.49-.11,15.09,3.65,5.91,10.91,11.71,24.71,5.83,6.5-2.77,10.86-7.87,12-14,.77-4.3-.32-8.46-2.85-10.86a36.35,36.35,0,0,0-7.58-5.36c-2.61-1.48-4.86-2.77-6.46-5.28a17.12,17.12,0,0,1-1.92-5.57c-.85-3.8-1.65-7.38-6.36-9-5.37-1.87-10.25-1.12-13.16-.67a11.86,11.86,0,0,1-2.66.24c-.85-.1-1.34-.75-1.85-1.43A4,4,0,0,0,365.59,198.8Z" style="fill:#263238"></path><path d="M389.47,254.82h0c-4.39-.55-9.73-2.9-10.18-11-.19-3.45.63-7.44,1.43-11.29.95-4.63,1.85-9,1.07-12.32-1.18-5.06-6.24-6-11.6-7.05-1-.2-2.11-.41-3.15-.64l-1.3-.29c-5.32-1.19-6.58-1.47-7.19-5.1a2.77,2.77,0,0,1,.59-2.39c1.35-1.53,4.31-1.43,4.44-1.43a.25.25,0,0,1,.24.26.25.25,0,0,1-.25.24h-.14c-.56,0-2.87.07-3.91,1.26a2.26,2.26,0,0,0-.47,2c.55,3.3,1.5,3.51,6.8,4.69l1.3.29c1,.23,2.1.44,3.13.64,5.52,1.05,10.74,2.05,12,7.43.8,3.43-.11,7.85-1.07,12.53-.79,3.82-1.6,7.78-1.42,11.16.35,6.24,3.63,9.79,9.74,10.56a.24.24,0,0,1,.22.28A.26.26,0,0,1,389.47,254.82Z" style="fill:#fff"></path><path d="M380.14,235.73h0a.24.24,0,0,1-.24-.26c.2-9.7-4.2-12.61-4.24-12.64a.26.26,0,0,1-.08-.35.24.24,0,0,1,.34-.07c.2.12,4.68,3.09,4.48,13.07A.26.26,0,0,1,380.14,235.73Z" style="fill:#fff"></path><path d="M404.64,245.58a8,8,0,0,1-2.17-.32c-7.81-2.2-13.35-11.3-15.72-18.41a32.12,32.12,0,0,1-1.25-6.18c-.51-3.78-1-7.35-4.49-10.31-5.21-4.41-13.14-1-13.22-1a.25.25,0,0,1-.33-.13.26.26,0,0,1,.13-.33c.08,0,8.3-3.53,13.74,1.08,3.65,3.08,4.14,6.75,4.66,10.63a32.31,32.31,0,0,0,1.23,6.08c2.33,7,7.76,15.94,15.39,18.09,4.16,1.17,6.73-1.35,7.76-4.11s.59-5.31-.88-6a4.39,4.39,0,0,0-4.93.52,2.79,2.79,0,0,0-.54,3.3.26.26,0,0,1-.13.33.24.24,0,0,1-.33-.13,3.3,3.3,0,0,1,.65-3.86,4.89,4.89,0,0,1,5.49-.61c1.93.9,2.09,4.08,1.14,6.63S407.87,245.58,404.64,245.58Z" style="fill:#fff"></path><path d="M366.28,320.75,353.83,356.9s12.85,14.05,14.46,20.88,6,28.92,6,28.92l-5,1.44s-7.82-14.7-12.64-23.93-13.25-18.48-13.25-25.3,2.41-38.16,3.21-44.18" style="fill:#263238"></path><path d="M369,408.73l-.19-.35c-.08-.15-7.87-14.81-12.64-23.94-1.65-3.17-3.74-6.35-5.76-9.43-3.88-5.91-7.55-11.49-7.55-16.1,0-7.06,2.44-38.39,3.22-44.25l1,.13c-.78,5.84-3.21,37.08-3.21,44.12,0,4.32,3.59,9.77,7.38,15.55,2,3.1,4.14,6.3,5.82,9.51,4.34,8.34,11.22,21.27,12.44,23.58l4.2-1.21c-.63-3.18-4.47-22.24-5.93-28.45-1.55-6.62-14.21-20.52-14.34-20.66l-.2-.21,12.55-36.43.95.33L354.4,356.78c1.7,1.88,12.85,14.4,14.38,20.89,1.59,6.75,6,28.71,6,28.93l.09.45Z" style="fill:#263238"></path><path d="M369.49,404.67a.25.25,0,0,1-.23-.15s-.54-1.3-1.45-3.45a.25.25,0,0,1,.14-.33.24.24,0,0,1,.32.13c.91,2.15,1.45,3.45,1.45,3.45a.26.26,0,0,1-.13.33Z" style="fill:#fff"></path><path d="M366.86,398.42a.25.25,0,0,1-.23-.15c-4.22-10-14.33-33.49-17.17-37-3.79-4.74,3.26-31.67,3.56-32.82a.26.26,0,0,1,.31-.18.27.27,0,0,1,.18.31c-.08.28-7.29,27.84-3.65,32.38,2.76,3.46,12,24.76,17.23,37.15a.24.24,0,0,1-.13.33A.18.18,0,0,1,366.86,398.42Z" style="fill:#fff"></path><path d="M370.33,297.58l-23.95,2.52s-4,24.26-1.94,25.52,8.83,2.86,8.83,2.86,17.06,1,17.9-1.49S370.33,297.58,370.33,297.58Z" style="fill:#fff"></path><path d="M360.62,329.21c-3,0-5.85-.14-7.38-.23-.37-.08-6.92-1.65-9.06-2.93s.48-18.64,1.71-26l.06-.38L370.79,297l0,.52c.17,2.76,1.66,27.05.81,29.59C371.08,328.82,365.63,329.21,360.62,329.21Zm-13.8-28.65c-1.9,11.43-3.19,23.68-2.12,24.64,2,1.2,8.61,2.77,8.68,2.79,7.94.47,16.87.17,17.31-1.16.65-1.95-.35-20.89-.83-28.7Z" style="fill:#263238"></path><path d="M370.33,297.58s-.32-41.57-.42-47c-.13-6.68-5.88-7.14-5.88-7.14s-8.82,1.26-8.82,11.76-8.83,44.94-8.83,44.94l3.6-.77,9-47.53s.84-3.78,4.2-3.78,3.36,4.2,3.36,7.56.34,42.34.34,42.34Z" style="fill:#fff"></path><path d="M345.7,300.76l.2-.78c.09-.35,8.81-34.5,8.81-44.82,0-10.81,9.15-12.25,9.25-12.26h.11c.06,0,6.21.58,6.34,7.63.1,5.41.41,46.63.42,47V298l-4.43.43v-.55c0-.39-.34-39-.34-42.34,0-4-.21-7.06-2.86-7.06-2.93,0-3.71,3.35-3.72,3.38l-9.06,47.84ZM364,243.9c-.79.13-8.33,1.65-8.33,11.26s-7.3,39-8.64,44.28l2.48-.53,8.95-47.21c.32-1.46,1.71-4.18,4.69-4.18,3.86,0,3.86,4.65,3.86,8.06,0,3.1.3,37,.34,41.79l2.43-.24c0-4.56-.32-41.48-.41-46.58C369.3,244.66,364.64,244,364,243.9Z" style="fill:#263238"></path><path d="M364.65,247.08s-2.95-2.17-6.49,3.33-7.41,26.69-7.41,31.91-4.39,12-7,15.77c-3.79,5.51-7.23,11.24-8,15.66s-.63,12.75.57,13.16,2,.4,2-1.21-1-6.33.63-7.53,2-7.63,2-7.63,16.46-18.08,18.87-22.09,6.83-25.71,6.83-25.71S367.86,251.1,364.65,247.08Z" style="fill:#fff"></path><path d="M337.37,327.63a3.9,3.9,0,0,1-1.22-.25c-1.82-.61-1.57-10.05-.91-13.72.9-5,5.06-11.42,8.12-15.86,1.7-2.48,6.89-10,6.89-15.48,0-5.15,3.89-26.6,7.49-32.18,1.48-2.3,3.06-3.61,4.7-3.92a3.39,3.39,0,0,1,2.51.46l.09.09c3.3,4.13,2.17,15.54,2.12,16-.19.93-4.47,21.86-6.9,25.9-2.33,3.88-17.22,20.28-18.82,22-.08,1.21-.55,6.6-2.19,7.83-1,.75-.72,3.76-.55,5.55.07.64.12,1.19.12,1.58a2,2,0,0,1-.62,1.69A1.44,1.44,0,0,1,337.37,327.63Zm25.77-80.47a3.74,3.74,0,0,0-.55.05c-1.33.26-2.71,1.46-4,3.48-3.52,5.45-7.33,26.55-7.33,31.63s-4,11.63-7.07,16.05-7.09,10.71-7.95,15.47-.44,12,.28,12.61c.57.18.95.23,1.1.12s.21-.22.21-.87c0-.35-.05-.87-.11-1.48-.22-2.26-.52-5.36.94-6.45,1-.78,1.66-4.87,1.81-7.27v-.17l.12-.13c.16-.18,16.46-18.08,18.81-22s6.73-25.33,6.77-25.55c0-.06,1.13-11.32-1.86-15.18A2.26,2.26,0,0,0,363.14,247.16Z" style="fill:#263238"></path><path d="M364.65,247.08s-2.95-2.17-6.49,3.33-7.41,26.69-7.41,31.91-4.39,12-7,15.77a76.2,76.2,0,0,0-6.26,10.47,8.68,8.68,0,0,0,3.55,1.86c1.36-1.5,16.47-18.14,18.77-22,2.41-4,6.83-25.71,6.83-25.71S367.86,251.1,364.65,247.08Z" style="fill:#92E3A9"></path><path d="M341.23,311l-.3-.08a9.28,9.28,0,0,1-3.77-2l-.25-.25.15-.32a75,75,0,0,1,6.3-10.55c1.7-2.48,6.89-10,6.89-15.48,0-5.15,3.89-26.6,7.49-32.18,1.48-2.3,3.06-3.61,4.7-3.92a3.39,3.39,0,0,1,2.51.46l.09.09c3.3,4.13,2.17,15.54,2.12,16-.19.93-4.47,21.86-6.9,25.9-2.32,3.86-17.14,20.2-18.83,22.05Zm-3.1-2.55a8.56,8.56,0,0,0,2.77,1.42c2-2.2,16.31-18,18.5-21.66,2.34-3.9,6.73-25.33,6.77-25.55,0-.06,1.13-11.32-1.86-15.18a2.48,2.48,0,0,0-1.72-.25c-1.33.26-2.71,1.46-4,3.48-3.52,5.45-7.33,26.55-7.33,31.63s-4,11.63-7.07,16.05A76.1,76.1,0,0,0,338.13,308.43Z" style="fill:#263238"></path><path d="M369.28,408.14s-1.65,5-2.48,5.79-6.61,2.69-7.44,3.52,3.31,1.86,7.86,1,8.47-4.34,9.71-5-2.61-6.82-2.61-6.82A7.14,7.14,0,0,0,369.28,408.14Z" style="fill:#fff"></path><path d="M363.83,419.28c-2.47,0-4.58-.47-5-1.26a.78.78,0,0,1,.16-.93,16.68,16.68,0,0,1,3.89-1.86,21.24,21.24,0,0,0,3.56-1.65c.54-.54,1.73-3.72,2.36-5.6l.05-.15.12-.09a7.64,7.64,0,0,1,5.42-1.54l.22,0,.12.19c.78,1.26,3.3,5.48,2.89,6.94a1,1,0,0,1-.47.6,13.55,13.55,0,0,0-1.31.85c-1.87,1.31-5,3.51-8.54,4.15A19.74,19.74,0,0,1,363.83,419.28Zm-3.95-1.61a13.83,13.83,0,0,0,7.25.32c3.32-.61,6.34-2.72,8.15-4a15,15,0,0,1,1.43-.93c.19-.45-1-3.2-2.69-5.9a6.89,6.89,0,0,0-4.31,1.28c-.38,1.11-1.73,5-2.55,5.84a16.68,16.68,0,0,1-3.89,1.86A29.23,29.23,0,0,0,359.88,417.67Z" style="fill:#263238"></path><path d="M367.22,418.48c4.54-.83,8.47-4.34,9.71-5,.41-.2.27-1-.1-2l-.11.06c-1.84,1-6,4-10.53,5a25.94,25.94,0,0,1-6.83.83C358.53,418.27,362.67,419.31,367.22,418.48Z" style="fill:#263238"></path><path d="M363.83,419.28c-2.47,0-4.58-.47-5-1.26a.78.78,0,0,1,.16-.93l.17-.16.23,0a26.1,26.1,0,0,0,6.68-.81A31.07,31.07,0,0,0,375,412c.57-.35,1.06-.65,1.45-.86l.58-.27.24.48c.22.58.8,2.12-.14,2.59a13.55,13.55,0,0,0-1.31.85c-1.87,1.31-5,3.51-8.54,4.15A19.74,19.74,0,0,1,363.83,419.28Zm-3.18-1.34a16.25,16.25,0,0,0,6.48.05c3.32-.61,6.34-2.72,8.15-4a13.81,13.81,0,0,1,1.43-.93h0a5.51,5.51,0,0,0-.16-.79l-1,.6a31.58,31.58,0,0,1-9.26,4.23A34.51,34.51,0,0,1,360.65,417.94Z" style="fill:#263238"></path><path d="M367.55,297.83s-2.32,30.32.52,30.65,3.6-1.21,3.6-3.29-1.34-27.61-1.34-27.61Z" style="fill:#fff"></path><path d="M368.78,329a7.09,7.09,0,0,1-.77,0c-.78-.09-2.23-.25-1.77-16,.23-7.55.8-15.15.81-15.22l0-.43,3.72-.33,0,.52c.05,1,1.34,25.57,1.34,27.63a3.9,3.9,0,0,1-1.06,3.08A3.38,3.38,0,0,1,368.78,329ZM368,298.29c-1.05,14-1.29,28.89.14,29.7a2.9,2.9,0,0,0,2.29-.47,3,3,0,0,0,.73-2.33c0-1.87-1.12-23.42-1.31-27.06Z" style="fill:#263238"></path></g></svg>